<?xml version="1.0" standalone="no"?>
<!DOCTYPE svg PUBLIC "-//W3C//DTD SVG 20010904//EN"
 "http://www.w3.org/TR/2001/REC-SVG-20010904/DTD/svg10.dtd">
<svg version="1.0" xmlns="http://www.w3.org/2000/svg"
 width="512.000000pt" height="512.000000pt" viewBox="0 0 512.000000 512.000000"
 preserveAspectRatio="xMidYMid meet">
<metadata>
Created by potrace 1.14, written by Peter Selinger 2001-2017
</metadata>
<g transform="translate(0.000000,512.000000) scale(0.100000,-0.100000)"
fill="#000000" stroke="none">
<path d="M377 4361 c-116 -127 -121 -171 -25 -232 29 -18 55 -36 58 -39 15
-16 272 -180 282 -180 6 0 8 -3 5 -6 -4 -4 19 -22 51 -41 63 -38 138 -106 123
-111 -5 -2 -20 2 -31 8 -39 21 -181 30 -245 16 -36 -8 -113 -44 -121 -57 -3
-5 -11 -6 -17 -3 -7 4 -9 4 -5 -1 4 -4 -6 -18 -23 -32 -57 -49 -111 -147 -126
-231 -15 -87 -3 -177 27 -210 l21 -22 -26 0 c-30 0 -85 -26 -85 -40 0 -6 -6
-10 -14 -10 -17 0 -78 -90 -106 -156 -100 -231 35 -472 314 -560 57 -18 263
-27 324 -14 20 5 59 11 86 15 27 3 52 8 56 10 4 2 20 7 36 10 67 14 92 20 114
27 8 3 69 23 135 44 66 21 127 41 135 45 36 18 102 39 120 39 10 0 30 -5 44
-11 18 -9 22 -16 16 -28 -8 -15 -59 -168 -64 -194 -2 -7 -6 -19 -9 -27 -3 -8
-13 -39 -22 -69 l-17 -53 83 -80 c46 -44 85 -79 87 -78 2 1 39 -32 126 -115
24 -22 82 -76 130 -120 49 -44 103 -93 121 -110 17 -16 59 -55 92 -85 208
-191 271 -250 311 -287 24 -24 45 -43 47 -43 2 0 22 -18 45 -40 23 -22 46 -40
51 -40 6 0 7 -4 4 -10 -3 -5 -2 -10 3 -10 5 0 32 -23 60 -51 29 -28 52 -49 52
-47 0 2 26 -21 58 -51 53 -51 167 -156 325 -301 33 -30 75 -68 92 -85 18 -16
74 -68 125 -115 51 -47 120 -111 154 -142 33 -32 69 -58 79 -58 9 0 59 9 110
21 50 11 103 23 116 25 13 3 51 12 85 20 106 26 275 63 321 71 17 3 38 9 48
14 9 5 17 8 17 5 0 -2 17 0 38 5 35 9 152 35 197 44 11 2 49 12 85 21 36 9 70
16 76 17 9 0 53 127 69 200 2 9 6 21 9 25 3 5 7 19 10 33 2 13 11 43 20 67 8
23 15 43 15 45 0 1 4 15 10 30 6 16 11 34 11 41 0 7 8 37 19 67 10 30 19 59
20 64 1 6 14 48 28 95 26 83 30 97 36 123 1 6 6 18 10 25 5 6 5 12 1 12 -3 0
-1 7 6 15 7 8 10 15 7 15 -3 0 5 30 17 67 l23 68 -36 47 c-19 27 -39 48 -43
48 -4 0 -8 6 -8 14 0 8 -3 16 -8 18 -4 2 -36 39 -72 83 -35 44 -69 85 -75 91
-5 6 -21 26 -35 44 -14 18 -35 44 -47 56 -13 13 -23 26 -23 29 0 3 -11 18 -24
33 -46 53 -132 158 -166 202 -19 25 -37 47 -40 50 -3 3 -33 39 -66 80 -59 74
-90 112 -109 134 -5 6 -39 47 -75 91 -36 44 -68 82 -72 83 -5 2 -8 8 -8 14 0
6 -8 18 -18 27 -9 9 -29 32 -43 51 -15 19 -37 46 -49 60 -12 14 -31 38 -43 53
-12 16 -27 34 -32 40 -6 7 -39 48 -75 92 -36 44 -69 85 -75 91 -5 7 -28 35
-50 63 -22 28 -43 51 -47 51 -5 0 -8 5 -8 11 0 6 -6 16 -12 23 -34 35 -220
266 -214 266 2 0 -8 12 -22 28 -15 15 -38 42 -52 60 -14 19 -37 48 -52 65 -16
17 -28 35 -28 39 0 9 -28 5 -117 -16 -198 -47 -283 -67 -303 -73 -14 -3 -31
-7 -39 -9 -8 -2 -26 -6 -40 -10 -14 -4 -30 -8 -36 -8 -5 -1 -23 -5 -40 -9 -29
-7 -52 -12 -102 -23 -12 -2 -35 -9 -50 -15 -16 -6 -30 -10 -33 -10 -3 0 -14
-2 -25 -4 -11 -3 -33 -7 -50 -10 -16 -4 -37 -7 -45 -9 -13 -3 -187 166 -250
243 -14 17 -31 31 -38 31 -7 0 -10 5 -7 10 3 6 2 10 -3 10 -6 0 -32 21 -59 48
-61 59 -149 132 -160 132 -4 0 -14 9 -21 20 -7 11 -19 20 -27 20 -7 0 -20 8
-27 18 -7 9 -19 18 -26 20 -7 1 -35 18 -62 37 -27 19 -54 35 -60 35 -5 0 -19
8 -30 18 -11 9 -24 17 -28 17 -4 1 -23 9 -42 20 -19 11 -37 20 -40 20 -3 0
-16 7 -30 14 -24 13 -23 12 5 -19 17 -19 53 -57 80 -86 28 -29 97 -103 155
-164 101 -109 205 -217 365 -385 87 -91 104 -115 80 -115 -8 0 -16 0 -17 1 -2
0 -16 -4 -31 -10 -15 -6 -42 -14 -60 -17 -18 -3 -36 -7 -42 -8 -5 -2 -27 -6
-47 -10 -30 -7 -39 -14 -48 -41 -12 -37 -5 -39 -70 18 -11 9 -22 17 -25 17
-11 0 -125 84 -125 92 0 4 -7 8 -15 8 -8 0 -15 5 -15 10 0 6 -4 10 -10 10 -10
0 -171 118 -181 133 -3 5 -10 8 -14 7 -4 -1 -17 6 -29 16 -12 11 -44 35 -71
54 -28 19 -51 38 -53 42 -2 4 -8 8 -14 8 -14 0 -58 36 -53 44 3 3 2 4 -1 1 -7
-4 -64 32 -75 47 -3 4 -21 16 -41 25 -39 20 -99 69 -186 151 -30 28 -56 52
-58 52 -4 0 -100 87 -156 143 -22 20 -43 37 -48 37 -6 0 -10 3 -10 8 -1 14
-53 45 -80 47 -20 2 -36 -5 -53 -24z m382 -728 c3 1 17 -5 31 -13 14 -7 27
-13 30 -12 10 3 60 -23 60 -30 0 -5 6 -8 13 -8 14 0 137 -111 137 -124 0 -4 9
-17 21 -29 12 -12 32 -40 46 -62 14 -22 34 -49 44 -60 10 -11 18 -23 18 -28 1
-7 9 -23 38 -72 25 -41 65 -124 61 -127 -1 -2 8 -18 21 -37 l25 -34 -30 15
c-16 9 -67 31 -114 48 -47 18 -104 41 -127 51 -24 11 -49 19 -56 19 -7 0 -18
5 -23 10 -6 6 -19 12 -30 14 -17 4 -62 21 -119 45 -11 5 -58 24 -105 42 -47
17 -89 36 -94 41 -6 4 -18 8 -27 8 -29 0 -96 41 -107 66 -15 32 -8 114 14 160
32 67 84 107 157 119 17 4 33 8 35 9 2 2 19 0 39 -5 20 -4 39 -7 42 -6z m453
-131 c2 -5 46 -42 98 -82 52 -40 97 -77 98 -82 2 -4 10 -8 17 -8 7 0 15 -4 17
-8 2 -4 23 -23 48 -42 25 -19 47 -37 50 -40 3 -3 23 -18 45 -35 22 -16 51 -39
64 -51 l23 -22 -20 -58 c-11 -33 -28 -85 -37 -117 -10 -32 -21 -60 -26 -62
-25 -16 -61 40 -178 283 -8 17 -19 32 -24 32 -4 0 -6 4 -3 9 3 5 -1 12 -10 15
-8 3 -13 10 -10 14 3 5 -4 19 -15 30 -11 12 -16 22 -12 22 4 0 3 4 -2 8 -6 4
-30 38 -55 76 -24 38 -49 74 -55 80 -26 28 -37 46 -27 46 6 0 12 -4 14 -8z
m-788 -467 c11 -8 27 -15 35 -15 9 0 28 -6 43 -14 14 -8 43 -19 65 -26 21 -7
48 -20 61 -28 12 -8 22 -12 22 -9 0 3 12 0 27 -8 15 -8 30 -12 35 -9 4 3 8 0
8 -5 0 -6 7 -11 15 -11 13 0 60 -18 130 -52 12 -5 27 -10 35 -12 8 -2 32 -10
52 -20 21 -9 40 -16 43 -16 3 0 24 -9 48 -19 23 -11 63 -27 90 -36 46 -17 53
-24 25 -29 -7 -1 -20 -6 -28 -11 -8 -5 -19 -10 -25 -10 -5 -1 -23 -7 -40 -14
-49 -21 -264 -81 -309 -86 -22 -3 -51 -7 -63 -9 -21 -4 -143 -9 -153 -6 -3 1
-19 3 -37 5 -106 14 -215 89 -251 172 -33 79 -14 178 48 244 37 40 90 50 124
24z"/>
</g>
</svg>
